<?xml version="1.0" encoding="utf-8"?>
<!-- Generator: Adobe Illustrator 21.1.0, SVG Export Plug-In . SVG Version: 6.00 Build 0)  -->
<svg version="1.1" id="Слой_1" xmlns="http://www.w3.org/2000/svg" xmlns:xlink="http://www.w3.org/1999/xlink" x="0px" y="0px"
	 viewBox="0 0 200 60.4" style="enable-background:new 0 0 200 60.4;" xml:space="preserve">
<style type="text/css">
	.st0{fill:#FFFFFF;}
</style>
<g>
	<g>
		<path class="st0" d="M70.2,20.4h-2.1v-3.6h2.1V20.4z M70.2,37.9h-2.1V22.2h2.1V37.9z"/>
		<path class="st0" d="M94.9,37.9h-2.2v-9.6c0-1.2-0.3-2.2-1-3.1s-1.6-1.3-2.7-1.3c-1.2,0-2.1,0.4-3,1.1c-0.8,0.8-1.2,1.7-1.2,2.8
			v10.1h-2.2V27.8c0-1.1-0.4-2-1.2-2.8c-0.8-0.7-1.8-1.1-3-1.1c-1.1,0-2,0.4-2.7,1.3s-1,1.9-1,3.1v9.6h-2.2v-9.4
			c0-2,0.6-3.5,1.7-4.7c1-1.1,2.4-1.7,4.1-1.9c2.3-0.2,4.1,0.8,5.4,2.9c1.4-2.1,3.2-3.1,5.4-2.9c1.7,0.1,3.1,0.8,4.1,1.9
			c1.1,1.2,1.7,2.8,1.7,4.7L94.9,37.9L94.9,37.9z"/>
		<path class="st0" d="M111,31.1c0,2-0.7,3.7-2,5.1s-3,2-5,2s-3.6-0.7-5-2c-1.3-1.4-2-3-2-5.1v-8.9h2.1v9.2c0,1.3,0.5,2.5,1.4,3.4
			c1,0.9,2.1,1.4,3.4,1.4s2.4-0.5,3.4-1.4s1.4-2.1,1.4-3.4v-9.2h2.1v8.9H111z"/>
		<path class="st0" d="M127.2,37.9h-2.1v-9.1c0-1.3-0.5-2.5-1.4-3.4c-1-1-2.1-1.4-3.4-1.4s-2.4,0.5-3.4,1.4c-1,1-1.4,2.1-1.4,3.4
			v9.1h-2.1V29c0-2,0.7-3.7,2-5.1c1.3-1.3,3-2,5-2s3.6,0.7,4.9,2s2,3,2,5.1L127.2,37.9L127.2,37.9z"/>
		<path class="st0" d="M131.4,20.4h-2.1v-3.6h2.1V20.4z M131.4,37.9h-2.1V22.2h2.1V37.9z"/>
		<path class="st0" d="M139.7,24.1h-3.9v13.7h-2.1V21.9c0-1.7,0.5-2.9,1.5-3.9c1-0.9,2.3-1.4,4-1.4h0.5v1.9h-0.6
			c-1.1,0.1-1.9,0.3-2.3,0.8c-0.7,0.7-1,1.5-1,2.2v0.7h3.9L139.7,24.1L139.7,24.1z"/>
		<path class="st0" d="M155.5,22.2l-8.9,21.1h-2.2l2.3-5.9l-6-15.2h2.3l5,12.4l5.3-12.4C153.3,22.2,155.5,22.2,155.5,22.2z"/>
	</g>
	<g>
		<g>
			<path class="st0" d="M30.5,9c0.6-1.7,1.1-3.4,1.9-5.1c1.1,2.4,1.8,5,3,7.3c2.8,1.1,5.7,1.5,8.5,2.6c-6,3-12.1,5.9-18.2,8.7
				C27.2,17.9,28.9,13.5,30.5,9L30.5,9z"/>
		</g>
		<g>
			<path class="st0" d="M20.2,14.1c2.8-1.5,5.4-3.1,8.2-4.6c-2.2,6.8-4.7,13.4-6.9,20.2c-2.5-4.6-4.6-9.4-6.9-14.2
				c-0.7-1.6-1.6-3.1-2.2-4.7C15.1,11.8,17.6,13.3,20.2,14.1L20.2,14.1z"/>
		</g>
		<g>
			<path class="st0" d="M32.4,21.2c6.1-3,12.2-6,18.4-8.9c-1,2.6-2.1,5-3.2,7.6c1.4,2.7,3.2,5.2,4.5,8
				C45.4,25.7,38.9,23.5,32.4,21.2L32.4,21.2z"/>
		</g>
		<g>
			<g>
				<path class="st0" d="M13.9,18c1.8,3.4,3.4,7.1,5.1,10.6c1.2,2.4,2.4,4.8,3.4,7.3c-6.1-2.1-12.2-4.3-18.3-6.6
					c2.4-1.1,4.9-1.8,7.3-2.9C12.3,23.6,13.1,20.8,13.9,18L13.9,18z"/>
			</g>
		</g>
		<g>
			<path class="st0" d="M38.2,24.7c5.1,1.6,10.2,3.5,15.2,5.2c1.6,0.6,3.3,1,4.9,1.8c-2.7,1-5.4,2.1-8,3.1c-1,3-1.6,6.2-2.7,9.2
				c-2.1-3.8-3.9-7.8-5.8-11.7C40.6,29.9,39.3,27.3,38.2,24.7L38.2,24.7z"/>
		</g>
		<g>
			<path class="st0" d="M37.9,37.8c0.7-1.9,1.2-3.9,2-5.8c0.9,1.6,1.7,3.3,2.5,4.9c2.1,4.5,4.4,8.8,6.4,13.2c-2.5-1-5-2.2-7.6-3.2
				c-2.7,1.4-5.2,3.1-7.9,4.5C34.8,46.9,36.5,42.4,37.9,37.8L37.9,37.8z"/>
		</g>
		<g>
			<path class="st0" d="M10,33.5c5.8,1.8,11.4,3.9,17.1,5.8c0.9,0.3,1.7,0.6,2.5,1c-6.2,2.8-12.2,6-18.5,8.7c1-2.5,2.3-4.9,3.2-7.5
				C13.2,38.8,11.3,36.3,10,33.5L10,33.5z"/>
		</g>
		<g>
			<path class="st0" d="M22.2,45.4c4.7-2.3,9.3-4.6,14-6.8c-1.3,4.2-2.9,8.3-4.3,12.5c-0.8,2.2-1.5,4.5-2.4,6.7
				c-1.1-2.4-2-5-3.1-7.5c-2.9-1.1-6-1.7-8.9-2.5C19,46.8,20.7,46.2,22.2,45.4L22.2,45.4z"/>
		</g>
	</g>
	<g>
		<g>
			<path class="st0" d="M162.3,34.3l-1.3,3.9c-0.1,0.3-0.3,0.5-0.7,0.5h-2.6c-0.4,0-0.5-0.3-0.4-0.6l6.2-18.1
				c0.4-1.1,0.7-1.4,1.8-1.4h1.2c1.2,0,1.5,0.3,1.9,1.4l6.2,18.1c0.1,0.3,0.1,0.6-0.4,0.6h-2.6c-0.4,0-0.7,0-0.8-0.5l-1.3-3.9H162.3
				z M168.7,31.3l-1.5-4.8l-1.2-4.1h-0.1l-1.2,4l-1.5,4.9H168.7z"/>
		</g>
		<g>
			<path class="st0" d="M180.6,34.7l1.3-4.5l3.8-11.5c0.1-0.4,0.3-0.4,0.7-0.4h2.7c0.3,0,0.3,0.2,0.3,0.4L183,37.1
				c-0.3,1-0.7,1.3-1.7,1.3h-1.5c-1,0-1.4-0.2-1.8-1.3l-6.3-18.3c-0.1-0.2,0-0.4,0.3-0.4h2.8c0.4,0,0.5,0.1,0.6,0.4l3.7,11.4
				l1.4,4.6L180.6,34.7L180.6,34.7z"/>
		</g>
	</g>
</g>
</svg>
